<svg width="187" height="187" viewBox="0 0 187 187" fill="none" xmlns="http://www.w3.org/2000/svg">
<rect x="6" y="6" width="175" height="175" rx="87.5" fill="#5865F2" stroke="black" stroke-width="12"/>
<path d="M105.67 59C104.79 60.6022 104 62.2597 103.282 63.954C96.4619 62.9043 89.5157 62.9043 82.6773 63.954C81.9773 62.2597 81.1696 60.6022 80.2902 59C73.8825 60.1234 67.6364 62.0939 61.7133 64.8748C49.9749 82.7201 46.798 100.105 48.3775 117.25C55.2518 122.462 62.9518 126.44 71.1543 128.982C73.003 126.44 74.6364 123.733 76.0364 120.915C73.3799 119.902 70.8133 118.632 68.3543 117.158C69.0005 116.68 69.6287 116.182 70.2389 115.704C84.6517 122.665 101.344 122.665 115.775 115.704C116.385 116.219 117.013 116.716 117.659 117.158C115.2 118.65 112.634 119.902 109.959 120.934C111.359 123.751 112.993 126.459 114.841 129C123.044 126.459 130.744 122.499 137.618 117.287C139.485 97.3978 134.423 80.1602 124.246 64.8932C118.341 62.1124 112.095 60.1418 105.687 59.0368L105.67 59ZM78.0466 106.698C73.6133 106.698 69.9338 102.573 69.9338 97.4715C69.9338 92.3702 73.4697 88.2265 78.0287 88.2265C82.5877 88.2265 86.2132 92.3886 86.1414 97.4715C86.0696 102.554 82.5697 106.698 78.0466 106.698ZM107.949 106.698C103.498 106.698 99.8542 102.573 99.8542 97.4715C99.8542 92.3702 103.39 88.2265 107.949 88.2265C112.508 88.2265 116.116 92.3886 116.044 97.4715C115.972 102.554 112.472 106.698 107.949 106.698Z" fill="white"/>
</svg>
