<svg width="187" height="187" viewBox="0 0 187 187" fill="none" xmlns="http://www.w3.org/2000/svg">
<circle cx="93.5" cy="93.5" r="87.5" fill="white" stroke="black" stroke-width="12"/>
<path d="M138.993 70.3457C137.886 66.2713 134.638 63.0694 130.505 61.9788C123.022 60 92.9998 60 92.9998 60C92.9998 60 62.9782 60 55.4945 61.9788C51.3615 63.0694 48.1136 66.2713 47.0072 70.3457C45 77.7232 45 93.1249 45 93.1249C45 93.1249 45 108.527 47.0072 115.904C48.1136 119.979 51.3615 123.18 55.4945 124.271C62.9782 126.25 92.9998 126.25 92.9998 126.25C92.9998 126.25 123.022 126.25 130.505 124.271C134.638 123.18 137.886 119.979 138.993 115.904C141 108.527 141 93.1249 141 93.1249C141 93.1249 140.992 77.7232 138.993 70.3457Z" fill="#FF0000"/>
<path d="M83.3908 107.32L108.331 93.1261L83.3908 78.9319V107.32Z" fill="white"/>
</svg>
